<svg width="492" height="389" viewBox="0 0 492 389" fill="none" xmlns="http://www.w3.org/2000/svg">
<path d="M352.37 0H137.38C132.916 0 129.297 3.61903 129.297 8.08333V331.821C129.297 336.285 132.916 339.904 137.38 339.904H352.37C356.834 339.904 360.453 336.285 360.453 331.821V8.08333C360.453 3.61903 356.834 0 352.37 0Z" fill="#F2F6FB"/>
<path d="M143.643 16.1772C145.764 16.1772 147.482 14.6391 147.482 12.7418C147.482 10.8444 145.764 9.30634 143.643 9.30634C141.523 9.30634 139.804 10.8444 139.804 12.7418C139.804 14.6391 141.523 16.1772 143.643 16.1772Z" fill="#FF5645"/>
<path d="M156.373 16.1772C158.382 16.1772 160.01 14.6391 160.01 12.7418C160.01 10.8444 158.382 9.30634 156.373 9.30634C154.365 9.30634 152.736 10.8444 152.736 12.7418C152.736 14.6391 154.365 16.1772 156.373 16.1772Z" fill="#FFCB3D"/>
<path d="M168.699 16.1772C170.596 16.1772 172.134 14.6391 172.134 12.7418C172.134 10.8444 170.596 9.30634 168.699 9.30634C166.802 9.30634 165.264 10.8444 165.264 12.7418C165.264 14.6391 166.802 16.1772 168.699 16.1772Z" fill="#3ABF7C"/>
<path d="M227.094 9.30634H263.06C263.73 9.30634 264.273 9.84919 264.273 10.5188V14.9647C264.273 15.6343 263.73 16.1772 263.06 16.1772H227.094C226.424 16.1772 225.882 15.6343 225.882 14.9647V10.5188C225.882 9.84919 226.424 9.30634 227.094 9.30634ZM329.74 9.30634H349.137C349.807 9.30634 350.35 9.84919 350.35 10.5188V14.9647C350.35 15.6343 349.807 16.1772 349.137 16.1772H329.74C329.07 16.1772 328.527 15.6343 328.527 14.9647V10.5188C328.527 9.84919 329.07 9.30634 329.74 9.30634ZM303.068 9.30634H322.062C322.731 9.30634 323.274 9.84919 323.274 10.5188V14.9647C323.274 15.6343 322.731 16.1772 322.062 16.1772H303.068C302.398 16.1772 301.856 15.6343 301.856 14.9647V10.5188C301.856 9.84919 302.398 9.30634 303.068 9.30634ZM200.826 116.937H289.732C290.178 116.937 290.54 117.299 290.54 117.745V124.625C290.54 125.072 290.178 125.434 289.732 125.434H200.826C200.38 125.434 200.018 125.072 200.018 124.625V117.745C200.018 117.299 200.38 116.937 200.826 116.937ZM184.662 103.179H305.089C305.535 103.179 305.897 103.541 305.897 103.988V110.868C305.897 111.315 305.535 111.677 305.089 111.677H184.662C184.215 111.677 183.853 111.315 183.853 110.868V103.988C183.853 103.541 184.215 103.179 184.662 103.179ZM143.442 147.922C143.442 147.031 144.169 146.308 145.059 146.308H345.5C346.393 146.308 347.117 147.031 347.117 147.922V279.03C347.117 279.921 346.389 280.644 345.5 280.644H145.059C144.166 280.644 143.442 279.921 143.442 279.03V147.922ZM144.706 291H237.145C237.866 291 238.127 291.075 238.39 291.216C238.654 291.357 238.861 291.564 239.001 291.827C239.142 292.09 239.217 292.352 239.217 293.072V320.488C239.217 321.209 239.142 321.47 239.001 321.734C238.861 321.997 238.654 322.204 238.39 322.345C238.127 322.486 237.866 322.561 237.145 322.561H144.706C143.985 322.561 143.724 322.486 143.46 322.345C143.197 322.204 142.99 321.997 142.849 321.734C142.708 321.47 142.633 321.209 142.633 320.488V293.072C142.633 292.352 142.708 292.09 142.849 291.827C142.99 291.564 143.197 291.357 143.46 291.216C143.724 291.075 143.985 291 144.706 291ZM252.605 291H345.045C345.765 291 346.026 291.075 346.29 291.216C346.553 291.357 346.76 291.564 346.901 291.827C347.042 292.09 347.117 292.352 347.117 293.072V320.488C347.117 321.209 347.042 321.47 346.901 321.734C346.76 321.997 346.553 322.204 346.29 322.345C346.026 322.486 345.765 322.561 345.045 322.561H252.605C251.884 322.561 251.623 322.486 251.36 322.345C251.096 322.204 250.889 321.997 250.749 321.734C250.608 321.47 250.533 321.209 250.533 320.488V293.072C250.533 292.352 250.608 292.09 250.749 291.827C250.889 291.564 251.096 291.357 251.36 291.216C251.623 291.075 251.884 291 252.605 291Z" fill="#E1E5F0"/>
<path d="M279.205 191.612C285.106 191.612 289.889 186.809 289.889 180.883C289.889 174.958 285.106 170.154 279.205 170.154C273.305 170.154 268.521 174.958 268.521 180.883C268.521 186.809 273.305 191.612 279.205 191.612Z" fill="#F2F6FB"/>
<path d="M245.077 93.0225V91.4058C247.325 91.4058 249.533 91.1123 251.662 90.5389L252.082 92.1C249.817 92.7102 247.467 93.0225 245.077 93.0225ZM258.604 89.3741L257.79 87.9778C259.71 86.857 261.475 85.4863 263.039 83.9046L264.188 85.0412C262.525 86.7236 260.647 88.1817 258.604 89.3741ZM268.457 79.4065L267.052 78.6077C268.148 76.6776 268.987 74.6093 269.541 72.4499L271.107 72.8522C270.517 75.1508 269.624 77.3523 268.457 79.4065ZM271.949 65.7996L270.332 65.82C270.304 63.5734 269.982 61.3687 269.381 59.2461L270.936 58.8055C271.576 61.0645 271.918 63.4105 271.949 65.7996ZM268.124 52.3154L266.739 53.1484C265.594 51.2429 264.2 49.4951 262.599 47.9519L263.72 46.7877C265.424 48.429 266.906 50.2882 268.124 52.3154ZM258.033 42.5926L257.253 44.0084C255.309 42.9369 253.231 42.1255 251.064 41.5988L251.446 40.0279C253.752 40.5885 255.965 41.4522 258.033 42.5926ZM244.385 39.2771L244.426 40.8932C242.181 40.95 239.98 41.3004 237.864 41.9297L237.404 40.3801C239.655 39.7103 241.997 39.3375 244.385 39.2771ZM230.952 43.2758L231.803 44.6504C229.913 45.8207 228.183 47.2366 226.661 48.8581L225.482 47.7514C227.101 46.0268 228.941 44.5207 230.952 43.2758ZM221.361 53.4936L222.786 54.2556C221.741 56.2126 220.957 58.3015 220.458 60.4758L218.882 60.1145C219.413 57.8 220.248 55.5764 221.361 53.4936ZM218.223 67.1852L219.838 67.1237C219.923 69.367 220.302 71.5634 220.959 73.6719L219.416 74.153C218.717 71.9088 218.314 69.5713 218.223 67.1852ZM222.394 80.5653L223.758 79.6968C224.952 81.5721 226.39 83.2838 228.03 84.7853L226.939 85.9779C225.194 84.3809 223.665 82.5603 222.394 80.5653ZM232.732 90.0253L233.476 88.5898C235.445 89.6102 237.544 90.3673 239.725 90.8378L239.384 92.4181C237.062 91.9172 234.829 91.1113 232.732 90.0253ZM261.995 256.582L247.973 256.646L248.013 256.582H186.771C182.977 256.582 181.533 253.974 183.545 250.758L225.396 183.85C227.408 180.634 230.739 180.588 232.837 183.755L263.935 231.076L274.937 213.452C276.711 210.611 279.653 210.566 281.51 213.355L306.98 251.598C308.837 254.386 307.645 256.402 304.292 256.298L285.666 256.475L279.785 256.502L279.834 256.582C279.834 256.582 276.761 256.582 272.965 256.582H261.995Z" fill="#3C41FF"/>
<path opacity="0.176986" d="M279.667 256.674C279.667 256.674 276.595 256.674 272.799 256.674H186.604C182.811 256.674 181.367 254.066 183.379 250.85L225.23 183.942C227.242 180.726 230.572 180.68 232.671 183.847L268.861 238.917" fill="#444444"/>
<path d="M489.77 388.404H448.348C447.378 388.404 446.529 387.705 446.529 386.865V386.305C446.529 385.466 447.338 384.767 448.348 384.767H489.77C490.74 384.767 491.589 385.466 491.589 386.305V386.865C491.589 387.705 490.78 388.404 489.77 388.404ZM394.6 384.767C395.605 384.767 396.419 385.581 396.419 386.585C396.419 387.59 395.605 388.404 394.6 388.404H328.729C327.725 388.404 326.911 387.59 326.911 386.585C326.911 385.581 327.725 384.767 328.729 384.767H394.6Z" fill="#9105C6"/>
<path d="M489.991 384.779C489.918 384.771 489.844 384.767 489.77 384.767H448.487L451.753 364.149L480.688 360.228L489.991 384.779ZM394.841 384.782C394.762 384.772 394.682 384.767 394.6 384.767H329.015C328.972 384.545 328.95 384.266 328.956 383.905C329.001 383.623 329.007 383.3 329.094 382.978C329.612 381.047 330.241 379.764 332.08 378.624C333.918 377.484 335.795 376.466 337.751 375.57C344.964 372.179 347.429 372.222 352.172 369.111C354.134 367.812 355.939 366.307 357.625 364.679C358.748 363.594 361.043 361.831 364.507 359.39L395.663 360.088L394.841 384.782Z" fill="#474961"/>
<path d="M438.693 137.1C441.768 143.089 450.093 161.672 457.525 199.5C458.137 202.639 458.725 205.694 459.289 208.661L459.345 208.592C469.53 246.974 476.6 273.844 480.555 289.202C484.616 304.976 478.984 304.729 482.064 318C483.84 325.651 489.789 331.803 489.738 339.77C489.73 341.028 489.76 343.544 489.829 347.318C489.952 354.059 485.026 359.831 478.351 360.769L451.389 364.559C444.096 365.584 437.352 360.502 436.327 353.208C436.318 353.14 436.309 353.073 436.3 353.006C435.573 347.187 435.205 343.728 435.195 342.628C435.176 340.35 435.147 338.275 435.103 336.385C433.55 330.027 431.931 323.41 430.629 318.076C428.871 315.36 426.803 311.605 425.173 305.532C424.101 301.536 421.663 285.983 417.861 258.873C417.788 258.509 417.649 257.388 417.444 255.51L412.121 235.916C411.899 238.205 411.673 240.52 411.443 242.856C411.913 275.328 411.901 293.57 411.407 297.581C409.851 310.207 405.2 313.683 405.064 317.65C404.931 321.536 405.521 327.2 406.644 335.712C406.788 336.802 406.904 340.279 406.994 346.142C406.995 346.21 406.995 346.278 406.995 346.346C406.995 352.25 403.16 357.257 397.846 359.013C394.502 362.057 389.119 359.741 374.983 359.838C374.983 359.838 372.808 359.857 369.936 359.683L366.432 359.684C364.358 359.683 362.385 359.207 360.622 358.353C358.951 357.885 357.569 357.269 356.799 356.46C356.155 355.765 355.75 354.977 355.75 354.977C355.558 354.547 355.42 354.124 355.321 353.724C354.203 352.042 353.454 350.085 353.195 347.961C352.738 344.214 352.418 341.718 352.234 340.473C351.075 332.591 356.11 325.67 356.804 317.847C358.008 304.277 352.464 305.305 354.291 289.119C356.054 273.507 359.388 255.485 364.295 235.054C367.134 202.877 370.869 166.722 374.983 154.572C375.052 154.355 377.619 145.744 381.329 139.664C381.443 139.786 381.56 139.904 381.682 140.016C382.147 140.452 382.609 140.768 383.07 141.002C383.993 141.552 384.758 141.741 384.758 141.741C384.758 141.741 384.796 141.74 384.834 141.78C384.834 141.78 409.611 147.977 434.193 140.918L434.269 140.876C434.269 140.876 435.026 140.661 435.93 140.079C436.344 139.83 436.833 139.457 437.282 139.045C437.846 138.494 438.31 137.831 438.693 137.1Z" fill="#8F4AFF"/>
<path opacity="0.176986" d="M386.63 142.175L399.566 189.878L412.108 236.045C411.89 238.292 411.668 240.564 411.443 242.856C411.913 275.328 411.901 293.57 411.406 297.581C409.851 310.207 405.2 313.683 405.064 317.65C404.931 321.536 405.521 327.2 406.644 335.712C406.788 336.802 406.904 340.279 406.994 346.142C406.995 346.21 406.995 346.278 406.995 346.346C406.995 352.25 403.16 357.257 397.846 359.013C394.502 362.057 389.119 359.741 374.983 359.838C374.983 359.838 372.808 359.857 369.936 359.683L366.432 359.684C364.358 359.683 362.385 359.207 360.622 358.353C358.951 357.885 357.569 357.269 356.799 356.46C356.155 355.765 355.75 354.977 355.75 354.977C355.558 354.547 355.42 354.124 355.321 353.724C354.203 352.042 353.454 350.085 353.195 347.961C352.738 344.214 352.418 341.718 352.234 340.473C351.075 332.591 356.11 325.67 356.804 317.847C358.008 304.277 352.464 305.305 354.291 289.119C356.054 273.507 359.388 255.485 364.295 235.054C367.134 202.877 370.869 166.722 374.983 154.572C375.052 154.355 377.619 145.744 381.329 139.664C381.443 139.786 381.56 139.904 381.682 140.016C382.146 140.452 382.609 140.768 383.07 141.002C383.993 141.552 384.758 141.741 384.758 141.741C384.758 141.741 384.796 141.74 384.834 141.78C384.834 141.78 385.467 141.938 386.63 142.175Z" fill="#444444"/>
<path d="M439.122 86.3636C439.169 86.8282 439.214 87.3081 439.259 87.8031L439.261 87.9243L439.371 89.9031C440.022 111.922 440.347 121.82 440.529 125.697C440.529 125.697 440.498 126.102 440.547 126.708C440.654 128.484 440.82 135.798 437.451 139.091C437.001 139.503 436.513 139.875 436.099 140.125C435.195 140.707 434.438 140.922 434.438 140.922L434.362 140.964C409.779 148.022 385.003 141.825 385.003 141.825C384.584 141.715 384.18 141.602 383.411 141.218C382.657 140.842 381.938 140.287 381.708 140.071C378.265 136.897 378.318 129.573 378.363 127.793C378.353 127.228 378.345 126.783 378.345 126.783C378.388 123.085 378.373 114.103 378.272 94.6168C368.62 93.7214 364.713 90.9371 366.55 86.2637C370.723 75.6481 373.486 65.4621 390.029 64.2851C394.088 62.2611 398.52 61.5835 401.605 61.3771C403.392 61.265 404.725 61.2822 405.259 61.3133C405.487 61.3093 405.792 61.3444 406.364 61.3749C406.935 61.4053 407.583 61.4344 408.307 61.4622C409.029 61.4092 409.675 61.3575 410.245 61.3071C410.815 61.2567 411.081 61.2117 411.348 61.207C411.918 61.1566 413.211 61.0936 415.001 61.1432C415.428 61.1569 415.881 61.1783 416.355 61.21C416.594 61.155 416.837 61.101 417.083 61.0478C434.086 57.3778 439.462 66.6693 446.365 76.0128C449.128 79.7526 446.714 83.2029 439.122 86.3636Z" fill="#F0549E"/>
<path opacity="0.176986" d="M389.773 64.2836C387.41 65.4744 385.179 67.1246 383.419 69.4074C382.638 70.4316 381.637 71.9851 380.876 74.2216C380.768 74.5469 380.659 74.8318 380.55 75.1571C380.296 75.8487 379.75 77.3134 379.283 78.8981C378.781 80.6854 378.384 84.0879 378.124 88.8219L378.126 88.9431L378.084 90.9246C378.091 92.1726 378.097 93.3816 378.104 94.5526C368.69 93.625 364.891 90.8511 366.707 86.2307C370.845 75.7042 373.597 65.6001 389.773 64.2836Z" fill="#444444"/>
<path d="M436.331 185.235C435.994 185.497 435.795 185.613 435.795 185.613C430.49 184.723 438.075 165.072 440.336 159.51L421.294 91.3848C433.115 88.8853 440.913 86.1608 444.687 83.2113C454.953 124.525 460.5 151.023 461.329 162.705C461.392 163.075 461.431 163.472 461.445 163.896C461.666 170.694 459.407 181.098 454.669 195.107C454.631 195.189 442.307 201.241 433.637 196.125L436.331 185.235ZM384.475 25.7454C384.492 25.7229 384.509 25.7 384.526 25.6769C388.073 21.7013 394.602 21.8187 397.543 22.4529C397.9 22.5311 399.169 22.8271 401.005 23.142C402.002 23.328 402.805 23.4125 403.284 23.5034C409.247 24.3741 411.694 23.8998 414.539 25.8245C415.072 26.165 416.282 27.0237 417.26 28.5488C420.017 32.8619 418.712 37.9266 418.351 39.4329C417.146 43.9391 414.198 46.474 413.271 47.5551C412.582 48.3727 411.625 49.2853 410.695 50.1098L411.595 63.1541C411.605 63.4369 411.494 63.7239 411.256 63.8535C410.228 64.5364 408.759 65.3157 406.916 65.7845C403.59 66.669 400.703 66.2037 399.071 65.7754C398.745 65.7059 398.491 65.3912 398.48 65.0681L397.992 56.514C397.638 56.6064 397.261 56.7023 396.858 56.8025C393.307 57.7296 393.521 57.6302 393.271 57.6852C390.672 58.0622 388.51 57.7537 388.116 57.631C386.682 57.3583 385.282 55.9919 384.13 53.7983C382.569 50.8707 381.369 46.4368 381.021 41.2391C380.937 40.4987 380.972 39.7709 381.008 39.0432L381.604 31.8313C381.732 30.2193 382.263 28.6495 383.219 27.287C383.608 26.6777 383.984 26.1889 384.433 25.789C384.447 25.7744 384.461 25.7599 384.475 25.7454ZM366.585 90.2235C367.87 92.5444 371.766 94.0066 378.273 94.6103C378.344 108.243 378.372 116.734 378.368 121.872C368.664 133.825 362.17 131.96 362.17 131.96C357.648 132.156 354.189 130.099 352.884 129.309C341.5 122.443 319.887 84.2269 316.16 77.5325C311.239 76.8584 306.646 75.5653 302.379 73.6532C295.574 70.6036 292.831 67.7104 294.152 64.9734L329.027 67.2253L329.122 67.159L359.368 98.9942C362.537 95.6262 364.691 92.8754 366.585 90.2235Z" fill="#F2A98A"/>
<path opacity="0.2" d="M366.715 90.2235C368 92.5444 371.896 94.0066 378.403 94.6103C378.474 108.243 378.502 116.734 378.498 121.872C368.794 133.825 362.3 131.96 362.3 131.96C357.778 132.156 354.32 130.099 353.014 129.309C341.63 122.443 320.018 84.2269 316.29 77.5325C311.369 76.8584 306.776 75.5653 302.509 73.6532C295.704 70.6036 292.961 67.7104 294.282 64.9734L329.157 67.2253L329.252 67.159L359.498 98.9942C362.668 95.6262 364.821 92.8754 366.715 90.2235Z" fill="#8C2A00"/>
<path d="M397.337 56.6558L403.29 54.7558L398.42 62.1988L397.337 56.6558Z" fill="#482D1F"/>
<path d="M411.852 40.3276C411.895 39.3483 411.694 38.343 411.167 37.418C410.071 35.474 407.765 34.2156 405.768 34.656C404.645 34.9036 403.833 35.6717 403.744 35.7436C402.516 36.9962 402.122 38.4179 402.122 38.4179L401.925 39.3616C387.441 33.8356 384.633 26.8614 383.879 26.4216C384.109 26.1614 384.335 25.9413 384.477 25.753C388.064 21.7817 394.714 21.9118 397.695 22.5502C398.092 22.6326 399.362 22.9286 401.238 23.2477C402.274 23.438 403.078 23.5225 403.556 23.6134C409.64 24.4967 412.127 24.0267 415.013 25.9555C415.546 26.2961 416.796 27.159 417.774 28.6841C420.822 33.3124 419.434 38.4088 418.905 39.5724C418.535 40.387 417.953 40.8948 417.953 40.8948C415.813 40.5739 413.817 40.4317 411.852 40.3276ZM379.981 37.0314C379.581 36.9295 379.488 36.3985 379.785 36.1308C380.165 35.8269 380.828 35.5379 381.635 35.5802C383.29 35.6669 385.008 36.8497 383.126 37.2367C382.022 37.4622 380.739 37.233 379.981 37.0314ZM388.279 37.7497C387.88 37.6478 387.786 37.1167 388.124 36.8511C388.504 36.5473 389.167 36.2582 390.014 36.3027C391.669 36.3894 393.385 37.6126 391.506 37.9592C390.318 38.2208 389.038 37.9513 388.279 37.7497Z" fill="#482D1F"/>
<path d="M382.98 40.0217C382.904 40.7057 382.724 41.8295 382.299 42.212C381.581 42.7814 380.799 40.7168 381.389 39.4931C381.619 38.979 381.905 38.9131 382.226 38.9704C382.706 39.0765 383.006 39.5374 382.98 40.0217ZM390.208 40.3196C390.213 41.0079 390.154 42.138 389.725 42.6012C389.083 43.2556 388.055 41.259 388.526 39.9886C388.715 39.4724 389.004 39.3661 389.327 39.383C389.811 39.4084 390.193 39.8331 390.208 40.3196Z" fill="#482D1F"/>
<path d="M386.466 48.4202C386.752 48.3543 387.449 48.1885 387.593 47.7508C387.597 47.6701 387.644 47.5511 387.608 47.4683C387.461 47.1773 386.969 47.3134 386.24 47.3157C384.945 47.3287 383.902 47.1526 383.902 47.1526C383.902 47.1526 384.142 47.9746 384.331 48.2274C384.703 48.854 386.015 48.518 386.466 48.4202Z" fill="#482D1F"/>
<path d="M384.147 40.1638L384.153 40.108L384.148 40.1356L384.147 40.1638ZM383.322 44.3949C383.222 44.8461 383.551 45.3116 384.007 45.4124C384.107 45.427 384.107 45.427 384.173 45.4354C384.851 45.5235 385.275 45.5653 386.006 45.6036C386.229 45.6153 386.419 45.444 386.431 45.2211C386.443 44.9982 386.271 44.808 386.049 44.7964C385.341 44.7593 384.936 44.7194 384.277 44.6338L384.147 44.6169C384.146 44.6151 384.111 44.5668 384.113 44.5591L384.947 40.2619L384.954 40.2061L385.078 37.8248C385.09 37.6019 384.919 37.4117 384.696 37.4C384.473 37.3883 384.283 37.5596 384.271 37.7825L384.148 40.1356L383.322 44.3949Z" fill="#482D1F"/>
<path d="M411.825 39.7038C411.886 40.901 411.539 42.1609 410.896 43.1358C410.11 44.3669 409.121 44.9794 407.882 45.4005C407.671 45.4724 407.558 45.7019 407.63 45.9133C407.701 46.1246 407.931 46.2377 408.142 46.1659C408.687 45.9807 409.124 45.7926 409.64 45.4729C410.4 45.002 411.06 44.3802 411.574 43.5759C412.308 42.4628 412.702 41.0328 412.633 39.6632C412.621 39.4403 412.432 39.2687 412.209 39.2799C411.986 39.2911 411.814 39.4809 411.825 39.7038Z" fill="#482D1F"/>
<path d="M442.704 183.215C442.768 182.887 443.086 182.672 443.415 182.736C443.744 182.8 443.958 183.119 443.894 183.447C443.492 185.511 443.128 187.105 442.279 190.647C441.434 194.171 441.073 195.753 440.675 197.795C440.611 198.124 440.293 198.338 439.964 198.274C439.635 198.21 439.421 197.892 439.485 197.563C439.887 195.499 440.251 193.905 441.1 190.364C441.945 186.839 442.306 185.257 442.704 183.215ZM450.901 181.437C450.985 181.113 451.316 180.918 451.64 181.003C451.964 181.087 452.158 181.418 452.074 181.742C451.497 183.962 451.088 185.692 450.209 189.554C449.326 193.428 448.916 195.167 448.334 197.402C448.25 197.726 447.919 197.921 447.595 197.836C447.271 197.752 447.077 197.421 447.161 197.097C447.738 194.877 448.147 193.147 449.027 189.285C449.909 185.411 450.319 183.672 450.901 181.437Z" fill="#482D1F"/>
<path d="M314.383 74.0676C328.667 74.0676 340.247 62.3962 340.247 47.9988C340.247 33.6014 328.667 21.9301 314.383 21.9301C300.099 21.9301 288.52 33.6014 288.52 47.9988C288.52 62.3962 300.099 74.0676 314.383 74.0676Z" fill="#474BFF"/>
<path d="M314.453 47.3901C311.6 47.3901 309.286 45.1052 309.286 42.2867C309.286 39.4682 311.6 37.1833 314.453 37.1833C317.307 37.1833 319.62 39.4682 319.62 42.2867C319.62 45.1052 317.307 47.3901 314.453 47.3901ZM314.453 49.9417C319.625 49.9417 323.818 54.0831 323.818 59.1916H305.088C305.088 54.0831 309.281 49.9417 314.453 49.9417Z" fill="#F2F6FB"/>
<path d="M38.492 298.523V298.598C38.492 299.568 39.3407 300.377 40.3105 300.377H70.822L60.0719 320.1C52.3937 334.165 44.7558 348.19 37.118 362.255L24.4691 385.454C24.0246 386.262 24.3883 387.313 25.237 387.798L25.3986 387.879C26.2473 388.364 27.3384 388.081 27.7425 387.313L75.0647 300.377H106.586L153.908 387.313C154.312 388.081 155.403 388.323 156.252 387.879L156.414 387.798C157.262 387.313 157.626 386.262 157.181 385.454L144.532 362.255C136.854 348.19 129.216 334.165 121.579 320.1L110.828 300.377H151.281C152.292 300.377 153.1 299.568 153.1 298.598V298.396C153.1 297.426 152.251 296.618 151.281 296.618H123.801C105.899 296.618 87.956 296.618 70.0132 296.618H42.0601L38.6537 269.054C36.3098 250.3 34.0063 231.507 31.6624 212.713L27.8233 181.673C27.7021 180.582 26.7726 179.773 25.7623 179.895L25.5602 179.935C24.5904 180.056 23.9034 181.067 24.0246 182.077L38.4516 298.315C38.4621 298.386 38.4756 298.455 38.492 298.523Z" fill="#D8DEED"/>
<path d="M126.359 384.925C126.111 384.8 125.833 384.729 125.542 384.729H103.69L63.5869 354.848L78.7824 333.559L103.11 351.221C104.444 355.748 105.818 360.274 107.192 364.841C107.919 367.226 108.647 369.57 109.374 371.914C111.637 372.803 113.577 373.612 114.951 374.218C117.578 375.35 119.8 376.4 122.225 377.977C122.225 377.977 124.326 379.27 125.498 381.129C125.862 381.735 126.185 382.423 126.387 383.15C126.468 383.473 126.468 383.797 126.509 384.08C126.496 384.345 126.436 384.642 126.359 384.925ZM202.051 384.858C201.918 384.827 201.78 384.81 201.637 384.81H136.574C136.452 384.81 136.333 384.822 136.218 384.845L135.587 359.649L166.141 359.56C169.875 362.001 172.304 363.765 173.428 364.85C175.113 366.478 176.918 367.982 178.881 369.282C183.623 372.393 186.088 372.35 193.301 375.74C195.257 376.636 197.134 377.654 198.973 378.794C200.811 379.935 201.44 381.217 201.959 383.148C202.045 383.47 202.051 383.794 202.096 384.076C202.102 384.395 202.085 384.65 202.051 384.858Z" fill="#474961"/>
<path d="M102.218 388.041C102.178 388.016 102.139 387.988 102.1 387.96L61.5268 357.728C60.7186 357.122 60.557 355.95 61.1631 355.141C61.7693 354.333 62.9413 354.171 63.7495 354.778L103.889 384.686H125.741C126.751 384.686 127.6 385.535 127.6 386.545C127.6 387.555 126.751 388.404 125.741 388.404H103.313C102.902 388.404 102.524 388.27 102.218 388.041ZM136.774 384.767H201.836C202.841 384.767 203.655 385.581 203.655 386.585C203.655 387.59 202.841 388.404 201.836 388.404H136.774C135.769 388.404 134.955 387.59 134.955 386.585C134.955 385.581 135.769 384.767 136.774 384.767Z" fill="#FF5645"/>
<path d="M179.819 281.994C176.808 297.824 175.576 321.025 178.529 335.63C178.529 335.63 181.595 360.728 179.447 360.89C178.926 360.93 173.386 361.173 172.8 361.213C158.217 362.183 132.893 364.123 129.117 364.123C126.599 364.123 125.341 362.507 125.341 359.273L124.519 350.592V350.521C121.734 353.845 118.843 357.291 115.846 360.859C111.387 362.183 104.643 360.287 95.6125 355.171C86.5823 350.055 79.5928 345.012 74.6438 340.042C72.2595 338.506 66.4569 330.012 67.9925 327.789L78.1359 312.996L84.1977 304.145C85.895 301.639 87.1762 299.978 88.9947 297.351C88.9947 297.31 89.3203 296.83 89.3203 296.789C88.6737 296.789 89.4108 296.264 84.8038 296.223C80.1969 296.183 55.3841 295.658 45.8873 281.956C42.0989 276.491 41.8057 270.438 41.5228 267.73C40.4721 257.194 43.2511 248.657 49.8597 242.116C51.6298 240.816 52.9324 240.044 53.7676 239.802C55.1012 239.398 62.1328 239.196 63.5068 239.115L91.7143 238.751C105.137 238.573 116.344 238.421 125.335 238.295L125.341 238.226L125.335 238.295C143.503 238.042 152.624 237.898 152.696 237.862C152.857 237.781 170.291 238.508 174.979 241.216C183.958 246.478 188.68 263.057 179.819 281.994Z" fill="#FFC855"/>
<path opacity="0.2" d="M179.73 282.153C176.732 297.98 175.51 321.122 178.457 335.699C178.457 335.699 181.524 360.798 179.375 360.96C178.855 361 173.314 361.243 172.728 361.283C158.146 362.253 132.821 364.193 129.045 364.193C126.528 364.193 125.269 362.576 125.269 359.343L124.449 350.675C159.264 309.125 177.486 286.709 179.116 283.428C179.328 283.002 179.533 282.577 179.73 282.153ZM125.253 238.493L125.269 238.295L125.253 238.493ZM140.516 238.275C140.508 238.275 140.5 238.275 140.492 238.275L139.917 238.174H139.982C140.161 238.208 140.338 238.241 140.516 238.275Z" fill="#8C2A00"/>
<path d="M107.649 269.83C105.655 272.846 103.556 275.777 98.4571 282.752C93.3415 289.751 91.2351 292.691 89.2215 295.737C88.9753 296.11 89.0776 296.611 89.45 296.857C89.8224 297.104 90.3238 297.001 90.5699 296.629C92.5638 293.613 94.6636 290.682 99.7621 283.707C104.878 276.708 106.984 273.768 108.998 270.722C109.244 270.349 109.142 269.848 108.769 269.602C108.397 269.355 107.895 269.458 107.649 269.83Z" fill="#482D1F"/>
<path d="M175.295 166.239C176.666 167.311 176.91 169.292 175.838 170.664C175.821 170.685 175.805 170.706 175.788 170.727L159.091 191.02C158.234 192.062 156.702 192.23 155.639 191.4C154.576 190.569 154.369 189.042 155.173 187.958L170.822 166.846C171.858 165.447 173.833 165.154 175.231 166.191C175.252 166.207 175.274 166.223 175.295 166.239Z" fill="#474961"/>
<path d="M171.839 170.437C175.357 173.185 180.392 172.619 183.085 169.171C184.38 167.513 182.578 164.059 183.025 158.936C183.13 157.739 183.961 155.804 185.518 153.133L185.518 153.133C185.63 152.94 185.565 152.692 185.372 152.58C185.278 152.525 185.166 152.51 185.061 152.54C176.979 154.78 172.075 157.006 170.347 159.217C167.654 162.665 168.322 167.688 171.839 170.437Z" fill="#F2F6FB"/>
<path d="M175.663 165.587C176.491 166.234 179.207 164.559 179.604 165.436C180.933 168.375 180.893 172.35 183.074 169.558C184.435 167.815 182.614 164.241 183.142 158.901C183.266 157.649 184.155 155.616 185.81 152.802L185.81 152.802C185.923 152.609 185.859 152.362 185.666 152.249C185.57 152.192 185.456 152.178 185.349 152.209C176.945 154.646 171.835 157.029 170.017 159.355C168.388 161.441 169.695 162.523 172.177 162.864C173.045 162.983 173.633 161.961 174.856 161.726C176.217 161.463 174.856 164.957 175.663 165.587Z" fill="#474BFF"/>
<path d="M96.8578 166.26C106.904 169.747 113.266 180.06 111.388 190.964L102.954 238.602L56.2854 239.437C53.6138 238.958 51.7299 237.839 50.6337 236.083C48.9894 233.447 49.4373 230.107 49.6613 228.821L58.0834 181.718C60.1648 169.765 71.4348 161.718 83.3742 163.61L84.1907 159.768C84.2835 159.331 84.7126 159.053 85.1493 159.146L97.0077 161.667C97.4443 161.759 97.723 162.189 97.6302 162.625L96.8578 166.26Z" fill="#FF4F03"/>
<path d="M87.1908 146.191C86.3416 154.814 85.8859 159.169 85.8235 159.255C85.7593 159.344 89.4211 160.135 96.8088 161.627L97.4649 158.292C97.6372 158.356 97.8145 158.422 97.997 158.489C101.415 159.804 101.211 159.686 101.455 159.763C104.012 160.405 106.193 160.327 106.597 160.279C109.987 159.978 113.838 153.726 115.46 144.764C115.609 144.034 115.637 143.305 115.705 142.577L115.902 135.337C115.954 133.72 115.603 132.109 114.81 130.708C114.477 130.107 114.143 129.547 113.772 129.109C109.513 123.605 101.854 124.749 100.483 124.935C100.321 124.937 100.16 124.981 99.9985 124.983C98.4694 125.374 97.0907 125.115 95.6354 125.1C94.9889 125.111 94.4729 125.646 94.4437 126.293L94.4224 136.642C94.3989 137.612 91.5994 135.399 90.507 135.337C88.5648 135.209 86.4476 138.236 85.7549 140.229C84.9842 142.385 85.6688 144.556 86.9461 145.948C87.0266 146.033 87.1082 146.114 87.1908 146.191ZM113.916 217.745C114.775 217.454 115.63 217.161 116.484 216.866C123.016 214.613 129.446 212.315 136.423 209.762C138.773 208.926 139.782 208.508 141.469 207.837C146.965 205.634 167.65 197.166 168.641 196.377C172.126 194.883 169.838 182.469 169.838 177.934C164.065 180.473 156.128 183.726 146.028 187.691C143.99 188.74 142.521 190.105 141.469 191.242C139.751 191.371 126.018 193.761 113.364 195.877C113.71 195.818 114.058 195.759 114.406 195.7C114.323 192.47 113.727 187.54 111.162 182.187C111.801 184.98 111.908 187.95 111.39 190.963L110.433 196.366C103.031 197.594 96.3769 198.654 93.2521 199.01C93.0752 198.498 91.6839 192.466 89.0784 180.913L64.9923 187.69C65.545 191.009 66.8714 196.329 68.9715 203.651C72.1215 214.633 73.3378 222.834 81.5773 225.237C83.4979 225.799 85.9874 225.712 91.5145 224.376C96.7171 223.117 101.55 221.734 106.199 220.275L102.963 238.548L102.945 238.548L102.955 238.603L147.284 237.986C149.623 237.913 146.897 236.314 139.105 233.189C131.312 230.064 123.369 227.406 115.276 225.217L115.033 217.367C114.661 217.494 114.289 217.62 113.916 217.745ZM59.7335 176.472C65.6556 179.036 71.3888 179.335 76.9329 177.367C82.4771 175.4 85.294 170.983 85.3836 164.116C80.5436 162.643 75.4617 163.044 70.1382 165.319C64.8147 167.594 61.3464 171.312 59.7335 176.472Z" fill="#DB9E75"/>
<path d="M96.838 161.385L93.4372 156.53L97.4686 158.294L96.838 161.385Z" fill="#482D1F"/>
<path d="M113.186 143.14C113.233 142.651 113.61 142.26 114.094 142.226C114.417 142.203 114.71 142.345 114.87 142.901C115.243 144.171 114.123 146.113 113.548 145.424C113.111 144.969 113.153 143.831 113.186 143.14ZM105.993 143.4C106.04 142.911 106.418 142.52 106.901 142.486C107.224 142.463 107.517 142.605 107.678 143.161C108.05 144.431 106.93 146.373 106.355 145.684C105.918 145.228 105.92 144.094 105.993 143.4Z" fill="#482D1F"/>
<path d="M108.578 151.403C108.29 151.343 107.588 151.149 107.436 150.713C107.43 150.633 107.381 150.515 107.416 150.431C107.56 150.178 108.093 150.262 108.824 150.292C110.123 150.323 111.162 150.129 111.162 150.129C111.162 150.129 110.896 150.958 110.709 151.173C110.351 151.847 109.03 151.493 108.578 151.403Z" fill="#482D1F"/>
<path d="M115.992 139.825C116.39 139.716 116.517 139.221 116.215 138.958C115.83 138.661 115.197 138.3 114.388 138.316C112.729 138.351 110.983 139.446 112.796 139.886C113.953 140.21 115.235 139.999 115.992 139.825ZM108.171 140.371C108.569 140.263 108.696 139.768 108.354 139.508C107.969 139.211 107.336 138.85 106.486 138.869C104.828 138.904 103.084 140.038 104.895 140.438C106.092 140.76 107.374 140.549 108.171 140.371ZM87.215 152.153C88.7099 151.152 89.7256 149.58 90.262 147.436C89.5247 147.227 88.3895 146.776 87.4682 145.738C86.2313 144.345 85.5474 142.214 86.3195 140.139C87.0123 138.146 89.0057 136.575 90.948 136.703C92.0403 136.765 92.8994 137.356 93.0221 137.435C94.3731 138.422 94.9613 139.705 94.9613 139.705L95.8351 141.924C97.2247 140.947 100.021 137.243 104.223 130.812C106.558 130.531 108.361 130.337 109.631 130.228C111.538 130.066 113.583 130.257 114.353 129.948C114.298 130.085 114.242 130.223 114.187 130.361C114.324 130.121 114.394 129.988 114.394 129.988C114.432 129.866 113.775 129.271 113.774 129.191C109.761 123.884 102.373 124.377 101.002 124.562C100.84 124.565 100.679 124.609 100.517 124.571C98.2587 124.853 96.3603 124.926 95.0681 124.989C88.9286 125.218 86.5305 124.451 83.4462 126.041C82.8854 126.334 81.564 127.044 80.417 128.479C79.7535 129.282 79.2558 130.136 78.8855 130.999C75.3626 130.884 72.8613 132.635 71.3816 136.253C69.4057 141.083 72.4358 145.459 76.2097 147.248C77.8006 151.212 82.1636 154.068 85.6786 152.926C86.3111 152.721 86.8232 152.463 87.215 152.153Z" fill="#482D1F"/>
<path d="M111.112 143.623L111.106 143.565L111.111 143.594L111.112 143.623ZM111.891 147.845L111.897 147.89C111.928 148.33 111.655 148.759 111.222 148.863C111.142 148.877 111.097 148.883 111.052 148.889C110.628 148.947 110.322 148.972 109.224 149.049C109.001 149.064 108.808 148.897 108.792 148.674C108.777 148.451 108.945 148.258 109.167 148.243C110.246 148.167 110.543 148.142 110.943 148.088C110.985 148.082 111.027 148.076 111.068 148.07C111.059 148.071 111.09 148.022 111.091 147.962L110.311 143.71L110.305 143.652L110.219 141.268C110.211 141.045 110.385 140.857 110.608 140.849C110.831 140.841 111.019 141.016 111.027 141.239L111.111 143.594L111.891 147.845Z" fill="#482D1F"/>
<path d="M88.6542 180.633L88.6541 177.375C88.6541 177.04 88.9255 176.769 89.2603 176.769C89.595 176.769 89.8664 177.04 89.8664 177.375L89.8665 180.634C89.8665 180.968 89.5951 181.24 89.2603 181.24C88.9256 181.24 88.6542 180.968 88.6542 180.633Z" fill="#482D1F"/>
<path opacity="0.2" d="M111.175 182.187C111.869 183.602 112.553 185.442 113.227 187.707C113.9 189.971 114.288 192.636 114.39 195.702L110.428 196.349C110.788 194.389 111.037 192.986 111.175 192.138C111.435 190.54 111.717 189.129 111.717 188.021C111.717 186.035 111.536 184.091 111.175 182.187ZM106.197 220.274L115.03 217.368L115.276 225.216C129.701 229.54 139.806 233.136 145.592 236.004C146.757 236.582 147.481 236.995 147.763 237.243C147.882 237.354 147.975 237.449 148.043 237.53C148.208 237.728 148.043 237.932 147.517 237.969C147.166 237.994 132.309 238.191 102.945 238.562L106.197 220.274Z" fill="#8C2A00"/>
</svg>
